<svg id="visual" viewBox="0 0 900 600" width="900" height="600" xmlns="http://www.w3.org/2000/svg" xmlns:xlink="http://www.w3.org/1999/xlink" version="1.1"><rect x="0" y="0" width="900" height="600" fill="#f3f3f3"></rect><defs><linearGradient id="grad1_0" x1="33.3%" y1="0%" x2="100%" y2="100%"><stop offset="20%" stop-color="#fa3f3c" stop-opacity="1"></stop><stop offset="80%" stop-color="#fa3f3c" stop-opacity="1"></stop></linearGradient></defs><defs><linearGradient id="grad1_1" x1="33.3%" y1="0%" x2="100%" y2="100%"><stop offset="20%" stop-color="#fa3f3c" stop-opacity="1"></stop><stop offset="80%" stop-color="#ff7667" stop-opacity="1"></stop></linearGradient></defs><defs><linearGradient id="grad1_2" x1="33.3%" y1="0%" x2="100%" y2="100%"><stop offset="20%" stop-color="#ffa293" stop-opacity="1"></stop><stop offset="80%" stop-color="#ff7667" stop-opacity="1"></stop></linearGradient></defs><defs><linearGradient id="grad1_3" x1="33.3%" y1="0%" x2="100%" y2="100%"><stop offset="20%" stop-color="#ffa293" stop-opacity="1"></stop><stop offset="80%" stop-color="#ffcbc2" stop-opacity="1"></stop></linearGradient></defs><defs><linearGradient id="grad1_4" x1="33.3%" y1="0%" x2="100%" y2="100%"><stop offset="20%" stop-color="#f3f3f3" stop-opacity="1"></stop><stop offset="80%" stop-color="#ffcbc2" stop-opacity="1"></stop></linearGradient></defs><defs><linearGradient id="grad2_0" x1="0%" y1="0%" x2="66.7%" y2="100%"><stop offset="20%" stop-color="#fa3f3c" stop-opacity="1"></stop><stop offset="80%" stop-color="#fa3f3c" stop-opacity="1"></stop></linearGradient></defs><defs><linearGradient id="grad2_1" x1="0%" y1="0%" x2="66.7%" y2="100%"><stop offset="20%" stop-color="#ff7667" stop-opacity="1"></stop><stop offset="80%" stop-color="#fa3f3c" stop-opacity="1"></stop></linearGradient></defs><defs><linearGradient id="grad2_2" x1="0%" y1="0%" x2="66.7%" y2="100%"><stop offset="20%" stop-color="#ff7667" stop-opacity="1"></stop><stop offset="80%" stop-color="#ffa293" stop-opacity="1"></stop></linearGradient></defs><defs><linearGradient id="grad2_3" x1="0%" y1="0%" x2="66.7%" y2="100%"><stop offset="20%" stop-color="#ffcbc2" stop-opacity="1"></stop><stop offset="80%" stop-color="#ffa293" stop-opacity="1"></stop></linearGradient></defs><defs><linearGradient id="grad2_4" x1="0%" y1="0%" x2="66.7%" y2="100%"><stop offset="20%" stop-color="#ffcbc2" stop-opacity="1"></stop><stop offset="80%" stop-color="#f3f3f3" stop-opacity="1"></stop></linearGradient></defs><g transform="translate(900, 0)"><path d="M0 378.6C-13.8 366.1 -27.7 353.6 -42.5 350.4C-57.4 347.3 -73.3 353.5 -86.2 349.5C-99 345.6 -108.7 331.4 -125.9 331.9C-143.1 332.4 -167.6 347.5 -175.9 335.2C-184.2 322.9 -176.2 283.1 -187.5 271.6C-198.7 260 -229.3 276.7 -236.7 267.2C-244.2 257.8 -228.6 222.2 -236.5 209.5C-244.4 196.8 -275.8 207 -297.9 205.6C-320.1 204.3 -333 191.5 -331.2 173.8C-329.3 156.1 -312.6 133.6 -311.4 118.1C-310.1 102.5 -324.3 94 -336.9 83C-349.5 72.1 -360.6 58.8 -367.3 44.6C-374 30.4 -376.3 15.2 -378.6 0L0 0Z" fill="#fadfda"></path><path d="M0 302.9C-11.1 292.9 -22.1 282.9 -34 280.3C-45.9 277.8 -58.7 282.8 -68.9 279.6C-79.2 276.5 -87 265.2 -100.7 265.5C-114.4 265.9 -134.1 278 -140.7 268.2C-147.4 258.3 -141 226.5 -150 217.3C-159 208 -183.4 221.3 -189.4 213.8C-195.4 206.2 -182.9 177.8 -189.2 167.6C-195.5 157.5 -220.6 165.6 -238.3 164.5C-256.1 163.4 -266.4 153.2 -264.9 139C-263.4 124.9 -250.1 106.9 -249.1 94.5C-248.1 82 -259.4 75.2 -269.5 66.4C-279.6 57.7 -288.5 47.1 -293.8 35.7C-299.2 24.3 -301 12.1 -302.9 0L0 0Z" fill="#ffb7ab"></path><path d="M0 227.1C-8.3 219.6 -16.6 212.1 -25.5 210.3C-34.5 208.4 -44 212.1 -51.7 209.7C-59.4 207.3 -65.2 198.9 -75.5 199.2C-85.8 199.5 -100.6 208.5 -105.6 201.1C-110.5 193.7 -105.7 169.9 -112.5 163C-119.2 156 -137.6 166 -142 160.3C-146.5 154.7 -137.2 133.3 -141.9 125.7C-146.7 118.1 -165.5 124.2 -178.8 123.4C-192 122.6 -199.8 114.9 -198.7 104.3C-197.6 93.7 -187.6 80.2 -186.8 70.9C-186.1 61.5 -194.6 56.4 -202.2 49.8C-209.7 43.3 -216.4 35.3 -220.4 26.8C-224.4 18.2 -225.8 9.1 -227.1 0L0 0Z" fill="#ff8c7d"></path><path d="M0 151.4C-5.5 146.4 -11.1 141.4 -17 140.2C-23 138.9 -29.3 141.4 -34.5 139.8C-39.6 138.2 -43.5 132.6 -50.4 132.8C-57.2 133 -67.1 139 -70.4 134.1C-73.7 129.2 -70.5 113.3 -75 108.6C-79.5 104 -91.7 110.7 -94.7 106.9C-97.7 103.1 -91.5 88.9 -94.6 83.8C-97.8 78.7 -110.3 82.8 -119.2 82.3C-128 81.7 -133.2 76.6 -132.5 69.5C-131.7 62.5 -125 53.5 -124.5 47.2C-124 41 -129.7 37.6 -134.8 33.2C-139.8 28.8 -144.2 23.5 -146.9 17.8C-149.6 12.1 -150.5 6.1 -151.4 0L0 0Z" fill="#fe5d51"></path><path d="M0 75.7C-2.8 73.2 -5.5 70.7 -8.5 70.1C-11.5 69.5 -14.7 70.7 -17.2 69.9C-19.8 69.1 -21.7 66.3 -25.2 66.4C-28.6 66.5 -33.5 69.5 -35.2 67C-36.8 64.6 -35.2 56.6 -37.5 54.3C-39.7 52 -45.9 55.3 -47.3 53.4C-48.8 51.6 -45.7 44.4 -47.3 41.9C-48.9 39.4 -55.2 41.4 -59.6 41.1C-64 40.9 -66.6 38.3 -66.2 34.8C-65.9 31.2 -62.5 26.7 -62.3 23.6C-62 20.5 -64.9 18.8 -67.4 16.6C-69.9 14.4 -72.1 11.8 -73.5 8.9C-74.8 6.1 -75.3 3 -75.7 0L0 0Z" fill="#fa3f3c"></path></g><g transform="translate(0, 600)"><path d="M0 -378.6C12 -349.2 24.1 -319.9 38.2 -314.7C52.4 -309.5 68.6 -328.4 80.4 -326.2C92.2 -324.1 99.4 -300.8 110.3 -290.8C121.1 -280.8 135.6 -284 147.3 -280.7C159.1 -277.4 168.1 -267.6 181.2 -262.5C194.3 -257.5 211.4 -257.3 220.2 -248.5C228.9 -239.7 229.5 -222.4 245.5 -217.5C261.6 -212.6 293.2 -220.3 311.6 -215.1C330 -209.8 335.1 -191.7 325 -170.6C314.8 -149.4 289.2 -125.2 292.7 -111C296.1 -96.8 328.4 -92.6 330.1 -81.4C331.8 -70.1 302.8 -51.9 305.8 -37.1C308.7 -22.4 343.6 -11.2 378.6 0L0 0Z" fill="#fadfda"></path><path d="M0 -302.9C9.6 -279.4 19.2 -255.9 30.6 -251.8C41.9 -247.6 54.9 -262.7 64.3 -261C73.7 -259.3 79.5 -240.6 88.2 -232.6C96.9 -224.6 108.5 -227.2 117.9 -224.6C127.3 -221.9 134.5 -214 145 -210C155.4 -206 169.1 -205.8 176.1 -198.8C183.2 -191.8 183.6 -177.9 196.4 -174C209.3 -170.1 234.5 -176.2 249.3 -172C264 -167.9 268.1 -153.4 260 -136.4C251.8 -119.5 231.4 -100.2 234.1 -88.8C236.9 -77.4 262.8 -74.1 264.1 -65.1C265.4 -56.1 242.2 -41.5 244.6 -29.7C247 -17.9 274.9 -9 302.9 0L0 0Z" fill="#ffb7ab"></path><path d="M0 -227.1C7.2 -209.5 14.4 -191.9 22.9 -188.8C31.4 -185.7 41.2 -197 48.2 -195.7C55.3 -194.4 59.7 -180.5 66.2 -174.5C72.7 -168.5 81.3 -170.4 88.4 -168.4C95.4 -166.4 100.9 -160.5 108.7 -157.5C116.6 -154.5 126.8 -154.4 132.1 -149.1C137.4 -143.8 137.7 -133.4 147.3 -130.5C156.9 -127.6 175.9 -132.2 186.9 -129C198 -125.9 201.1 -115 195 -102.3C188.9 -89.6 173.5 -75.1 175.6 -66.6C177.6 -58.1 197.1 -55.6 198.1 -48.8C199.1 -42.1 181.7 -31.1 183.5 -22.3C185.2 -13.4 206.2 -6.7 227.1 0L0 0Z" fill="#ff8c7d"></path><path d="M0 -151.4C4.8 -139.7 9.6 -128 15.3 -125.9C20.9 -123.8 27.5 -131.4 32.2 -130.5C36.9 -129.6 39.8 -120.3 44.1 -116.3C48.5 -112.3 54.2 -113.6 58.9 -112.3C63.6 -111 67.3 -107 72.5 -105C77.7 -103 84.5 -102.9 88.1 -99.4C91.6 -95.9 91.8 -88.9 98.2 -87C104.6 -85.1 117.3 -88.1 124.6 -86C132 -83.9 134.1 -76.7 130 -68.2C125.9 -59.8 115.7 -50.1 117.1 -44.4C118.4 -38.7 131.4 -37 132 -32.5C132.7 -28.1 121.1 -20.7 122.3 -14.9C123.5 -9 137.5 -4.5 151.4 0L0 0Z" fill="#fe5d51"></path><path d="M0 -75.7C2.4 -69.8 4.8 -64 7.6 -62.9C10.5 -61.9 13.7 -65.7 16.1 -65.2C18.4 -64.8 19.9 -60.2 22.1 -58.2C24.2 -56.2 27.1 -56.8 29.5 -56.1C31.8 -55.5 33.6 -53.5 36.2 -52.5C38.9 -51.5 42.3 -51.5 44 -49.7C45.8 -47.9 45.9 -44.5 49.1 -43.5C52.3 -42.5 58.6 -44.1 62.3 -43C66 -42 67 -38.3 65 -34.1C63 -29.9 57.8 -25 58.5 -22.2C59.2 -19.4 65.7 -18.5 66 -16.3C66.4 -14 60.6 -10.4 61.2 -7.4C61.7 -4.5 68.7 -2.2 75.7 0L0 0Z" fill="#fa3f3c"></path></g></svg>